<mxfile host="app.diagrams.net" modified="2023-04-22T11:22:27.758Z" agent="Mozilla/5.0 (Windows NT 10.0; Win64; x64) AppleWebKit/537.36 (KHTML, like Gecko) Chrome/112.0.0.0 Safari/537.36" etag="bdSZukGs7t3X80s52pA5" version="21.2.1" type="device">
  <diagram name="Page-1" id="tfmDBc3miOEakFV3B7y-">
    <mxGraphModel dx="4435" dy="2015" grid="1" gridSize="10" guides="1" tooltips="1" connect="1" arrows="1" fold="1" page="1" pageScale="1" pageWidth="850" pageHeight="1100" math="0" shadow="0">
      <root>
        <mxCell id="0" />
        <mxCell id="1" parent="0" />
        <mxCell id="N_5KMHFPPtvNETul84LO-84" style="rounded=0;orthogonalLoop=1;jettySize=auto;html=1;exitX=0.75;exitY=1;exitDx=0;exitDy=0;" parent="1" source="NPP5GdCvXKv0nV-kcgQ7-17" target="N_5KMHFPPtvNETul84LO-41" edge="1">
          <mxGeometry relative="1" as="geometry" />
        </mxCell>
        <mxCell id="NPP5GdCvXKv0nV-kcgQ7-16" value="Machine" style="swimlane;childLayout=stackLayout;horizontal=1;startSize=50;horizontalStack=0;rounded=0;fontSize=14;fontStyle=0;strokeWidth=2;resizeParent=0;resizeLast=1;shadow=0;dashed=0;align=center;arcSize=4;whiteSpace=wrap;html=1;" parent="1" vertex="1">
          <mxGeometry x="-330" y="320" width="160" height="105" as="geometry" />
        </mxCell>
        <mxCell id="NPP5GdCvXKv0nV-kcgQ7-17" value="&lt;div&gt;+name: Name&lt;br&gt;&lt;/div&gt;&lt;div&gt;+type:String&lt;br&gt;&lt;/div&gt;&lt;div&gt;&lt;br&gt;&lt;/div&gt;&lt;div&gt;&lt;br&gt;&lt;/div&gt;" style="align=left;strokeColor=none;fillColor=none;spacingLeft=4;fontSize=12;verticalAlign=top;resizable=0;rotatable=0;part=1;html=1;" parent="NPP5GdCvXKv0nV-kcgQ7-16" vertex="1">
          <mxGeometry y="50" width="160" height="55" as="geometry" />
        </mxCell>
        <mxCell id="NPP5GdCvXKv0nV-kcgQ7-36" style="edgeStyle=orthogonalEdgeStyle;orthogonalLoop=1;jettySize=auto;html=1;startFill=1;endFill=0;rounded=0;entryX=0.5;entryY=1;entryDx=0;entryDy=0;" parent="1" edge="1">
          <mxGeometry relative="1" as="geometry">
            <mxPoint x="720" y="729.9999999999998" as="sourcePoint" />
          </mxGeometry>
        </mxCell>
        <mxCell id="7pt3q2MDJ_d6-O4SjyfG-34" style="rounded=0;orthogonalLoop=1;jettySize=auto;html=1;exitX=1;exitY=0.75;exitDx=0;exitDy=0;entryX=0;entryY=0.5;entryDx=0;entryDy=0;endArrow=none;endFill=0;" parent="1" source="QFNl94cKe365iZrxpkh_-8" target="7pt3q2MDJ_d6-O4SjyfG-33" edge="1">
          <mxGeometry relative="1" as="geometry" />
        </mxCell>
        <mxCell id="7pt3q2MDJ_d6-O4SjyfG-47" style="rounded=0;orthogonalLoop=1;jettySize=auto;html=1;exitX=1;exitY=0.75;exitDx=0;exitDy=0;entryX=0;entryY=0.5;entryDx=0;entryDy=0;endArrow=none;endFill=0;" parent="1" source="QFNl94cKe365iZrxpkh_-8" target="7pt3q2MDJ_d6-O4SjyfG-46" edge="1">
          <mxGeometry relative="1" as="geometry" />
        </mxCell>
        <mxCell id="N_5KMHFPPtvNETul84LO-42" style="rounded=0;orthogonalLoop=1;jettySize=auto;html=1;exitX=0;exitY=0.5;exitDx=0;exitDy=0;entryX=1;entryY=0.5;entryDx=0;entryDy=0;endArrow=none;endFill=0;" parent="1" source="QFNl94cKe365iZrxpkh_-16" target="N_5KMHFPPtvNETul84LO-40" edge="1">
          <mxGeometry relative="1" as="geometry" />
        </mxCell>
        <mxCell id="N_5KMHFPPtvNETul84LO-47" style="rounded=0;orthogonalLoop=1;jettySize=auto;html=1;exitX=0;exitY=0.25;exitDx=0;exitDy=0;entryX=1;entryY=0.5;entryDx=0;entryDy=0;endArrow=none;endFill=0;" parent="1" source="QFNl94cKe365iZrxpkh_-8" target="N_5KMHFPPtvNETul84LO-45" edge="1">
          <mxGeometry relative="1" as="geometry" />
        </mxCell>
        <mxCell id="QFNl94cKe365iZrxpkh_-8" value="&lt;font style=&quot;font-size: 23px;&quot;&gt;ðŸ¯…&lt;/font&gt; User" style="shape=hexagon;perimeter=hexagonPerimeter2;whiteSpace=wrap;html=1;fixedSize=1;fillColor=#ffff88;strokeColor=#36393d;" parent="1" vertex="1">
          <mxGeometry x="835" y="360" width="80" height="50" as="geometry" />
        </mxCell>
        <mxCell id="QFNl94cKe365iZrxpkh_-9" value="&lt;div&gt;System&lt;/div&gt;" style="shape=hexagon;perimeter=hexagonPerimeter2;whiteSpace=wrap;html=1;fixedSize=1;fillColor=#ffff88;strokeColor=#36393d;" parent="1" vertex="1">
          <mxGeometry x="90" y="1030" width="80" height="50" as="geometry" />
        </mxCell>
        <mxCell id="QFNl94cKe365iZrxpkh_-16" value="&lt;div&gt;&lt;font style=&quot;font-size: 23px;&quot;&gt;ðŸ¯…&lt;/font&gt; Teacher&lt;/div&gt;" style="shape=hexagon;perimeter=hexagonPerimeter2;whiteSpace=wrap;html=1;fixedSize=1;fillColor=#ffff88;strokeColor=#36393d;" parent="1" vertex="1">
          <mxGeometry x="825" y="550" width="90" height="50" as="geometry" />
        </mxCell>
        <mxCell id="QFNl94cKe365iZrxpkh_-21" value="Extends" style="endArrow=block;endSize=16;endFill=0;html=1;rounded=0;entryX=0.5;entryY=1;entryDx=0;entryDy=0;exitX=0.5;exitY=0;exitDx=0;exitDy=0;" parent="1" source="QFNl94cKe365iZrxpkh_-16" target="QFNl94cKe365iZrxpkh_-8" edge="1">
          <mxGeometry width="160" relative="1" as="geometry">
            <mxPoint x="735" y="790" as="sourcePoint" />
            <mxPoint x="895" y="790" as="targetPoint" />
          </mxGeometry>
        </mxCell>
        <mxCell id="V31sx_IjUTGQrduutuzt-7" style="rounded=0;orthogonalLoop=1;jettySize=auto;html=1;exitX=0.25;exitY=1;exitDx=0;exitDy=0;entryX=0.5;entryY=0;entryDx=0;entryDy=0;endArrow=none;endFill=0;" edge="1" parent="1" source="QFNl94cKe365iZrxpkh_-40" target="N_5KMHFPPtvNETul84LO-45">
          <mxGeometry relative="1" as="geometry" />
        </mxCell>
        <mxCell id="QFNl94cKe365iZrxpkh_-40" value="&lt;div&gt;User is Logged In&lt;/div&gt;" style="shape=parallelogram;perimeter=parallelogramPerimeter;whiteSpace=wrap;html=1;fixedSize=1;fillColor=#dae8fc;strokeColor=#000000;strokeWidth=4;" parent="1" vertex="1">
          <mxGeometry x="890" y="150" width="160" height="60" as="geometry" />
        </mxCell>
        <mxCell id="QFNl94cKe365iZrxpkh_-47" value="" style="ellipse;whiteSpace=wrap;html=1;aspect=fixed;fillColor=#e51400;strokeColor=#B20000;fontColor=#ffffff;" parent="1" vertex="1">
          <mxGeometry x="900" y="280" width="20" height="20" as="geometry" />
        </mxCell>
        <mxCell id="QFNl94cKe365iZrxpkh_-48" value="" style="endArrow=none;html=1;rounded=0;entryX=0;entryY=1;entryDx=0;entryDy=0;exitX=0.5;exitY=0;exitDx=0;exitDy=0;" parent="1" source="QFNl94cKe365iZrxpkh_-8" target="QFNl94cKe365iZrxpkh_-47" edge="1">
          <mxGeometry width="50" height="50" relative="1" as="geometry">
            <mxPoint x="900" y="410" as="sourcePoint" />
            <mxPoint x="820" y="630" as="targetPoint" />
          </mxGeometry>
        </mxCell>
        <mxCell id="QFNl94cKe365iZrxpkh_-49" value="" style="endArrow=classic;html=1;rounded=0;entryX=0.443;entryY=1.038;entryDx=0;entryDy=0;exitX=1;exitY=0;exitDx=0;exitDy=0;entryPerimeter=0;" parent="1" source="QFNl94cKe365iZrxpkh_-47" target="QFNl94cKe365iZrxpkh_-40" edge="1">
          <mxGeometry width="50" height="50" relative="1" as="geometry">
            <mxPoint x="780" y="560" as="sourcePoint" />
            <mxPoint x="830" y="510" as="targetPoint" />
          </mxGeometry>
        </mxCell>
        <mxCell id="QFNl94cKe365iZrxpkh_-58" value="" style="endArrow=none;html=1;rounded=0;entryX=0;entryY=1;entryDx=0;entryDy=0;" parent="1" source="QFNl94cKe365iZrxpkh_-9" target="N_5KMHFPPtvNETul84LO-52" edge="1">
          <mxGeometry width="50" height="50" relative="1" as="geometry">
            <mxPoint x="700" y="1210" as="sourcePoint" />
            <mxPoint x="490" y="900" as="targetPoint" />
          </mxGeometry>
        </mxCell>
        <mxCell id="7pt3q2MDJ_d6-O4SjyfG-26" style="rounded=0;orthogonalLoop=1;jettySize=auto;html=1;exitX=0.5;exitY=0;exitDx=0;exitDy=0;entryX=0;entryY=0.5;entryDx=0;entryDy=0;fillColor=#dae8fc;strokeColor=#6c8ebf;" parent="1" source="7pt3q2MDJ_d6-O4SjyfG-2" target="7pt3q2MDJ_d6-O4SjyfG-14" edge="1">
          <mxGeometry relative="1" as="geometry" />
        </mxCell>
        <mxCell id="7pt3q2MDJ_d6-O4SjyfG-2" value="Login User" style="shape=parallelogram;html=1;strokeWidth=2;perimeter=parallelogramPerimeter;whiteSpace=wrap;rounded=0;arcSize=12;size=0.23;fillColor=#dae8fc;strokeColor=#000000;" parent="1" vertex="1">
          <mxGeometry x="1230" y="80" width="140" height="50" as="geometry" />
        </mxCell>
        <mxCell id="7pt3q2MDJ_d6-O4SjyfG-6" value="" style="ellipse;whiteSpace=wrap;html=1;aspect=fixed;fillColor=#e51400;strokeColor=#B20000;fontColor=#ffffff;" parent="1" vertex="1">
          <mxGeometry x="1060" y="350" width="20" height="20" as="geometry" />
        </mxCell>
        <mxCell id="7pt3q2MDJ_d6-O4SjyfG-7" value="" style="endArrow=none;html=1;rounded=0;entryX=0.5;entryY=1;entryDx=0;entryDy=0;exitX=1;exitY=0.5;exitDx=0;exitDy=0;" parent="1" source="QFNl94cKe365iZrxpkh_-8" target="7pt3q2MDJ_d6-O4SjyfG-6" edge="1">
          <mxGeometry width="50" height="50" relative="1" as="geometry">
            <mxPoint x="845" y="700" as="sourcePoint" />
            <mxPoint x="830" y="640" as="targetPoint" />
          </mxGeometry>
        </mxCell>
        <mxCell id="7pt3q2MDJ_d6-O4SjyfG-8" value="" style="endArrow=classic;html=1;rounded=0;entryX=0.5;entryY=1;entryDx=0;entryDy=0;exitX=1;exitY=0;exitDx=0;exitDy=0;" parent="1" source="7pt3q2MDJ_d6-O4SjyfG-6" target="7pt3q2MDJ_d6-O4SjyfG-2" edge="1">
          <mxGeometry width="50" height="50" relative="1" as="geometry">
            <mxPoint x="790" y="570" as="sourcePoint" />
            <mxPoint x="810" y="460" as="targetPoint" />
          </mxGeometry>
        </mxCell>
        <mxCell id="7pt3q2MDJ_d6-O4SjyfG-13" style="rounded=0;orthogonalLoop=1;jettySize=auto;html=1;exitX=1;exitY=0.5;exitDx=0;exitDy=0;" parent="1" source="7pt3q2MDJ_d6-O4SjyfG-52" target="7pt3q2MDJ_d6-O4SjyfG-2" edge="1">
          <mxGeometry relative="1" as="geometry" />
        </mxCell>
        <mxCell id="7pt3q2MDJ_d6-O4SjyfG-10" value="inputs data" style="ellipse;whiteSpace=wrap;html=1;fillColor=#f8cecc;strokeColor=#b85450;" parent="1" vertex="1">
          <mxGeometry x="930" y="290" width="120" height="30" as="geometry" />
        </mxCell>
        <mxCell id="7pt3q2MDJ_d6-O4SjyfG-11" value="" style="endArrow=classic;html=1;rounded=0;exitX=1;exitY=0.5;exitDx=0;exitDy=0;entryX=0;entryY=1;entryDx=0;entryDy=0;endFill=1;" parent="1" source="QFNl94cKe365iZrxpkh_-8" target="7pt3q2MDJ_d6-O4SjyfG-10" edge="1">
          <mxGeometry width="50" height="50" relative="1" as="geometry">
            <mxPoint x="885" y="725" as="sourcePoint" />
            <mxPoint x="930" y="640" as="targetPoint" />
          </mxGeometry>
        </mxCell>
        <mxCell id="7pt3q2MDJ_d6-O4SjyfG-19" style="rounded=0;orthogonalLoop=1;jettySize=auto;html=1;exitX=0.5;exitY=0;exitDx=0;exitDy=0;entryX=0.75;entryY=0;entryDx=0;entryDy=0;strokeColor=#FF6666;" parent="1" source="7pt3q2MDJ_d6-O4SjyfG-14" target="N_5KMHFPPtvNETul84LO-41" edge="1">
          <mxGeometry relative="1" as="geometry">
            <mxPoint x="584.583333333333" y="296.25" as="targetPoint" />
          </mxGeometry>
        </mxCell>
        <mxCell id="7pt3q2MDJ_d6-O4SjyfG-20" style="rounded=0;orthogonalLoop=1;jettySize=auto;html=1;exitX=0.5;exitY=0;exitDx=0;exitDy=0;strokeColor=#FF6666;" parent="1" source="7pt3q2MDJ_d6-O4SjyfG-14" target="N_5KMHFPPtvNETul84LO-68" edge="1">
          <mxGeometry relative="1" as="geometry">
            <mxPoint x="585" y="600" as="targetPoint" />
          </mxGeometry>
        </mxCell>
        <mxCell id="7pt3q2MDJ_d6-O4SjyfG-21" style="rounded=0;orthogonalLoop=1;jettySize=auto;html=1;exitX=0.5;exitY=0;exitDx=0;exitDy=0;strokeColor=#FF6666;" parent="1" source="7pt3q2MDJ_d6-O4SjyfG-14" target="N_5KMHFPPtvNETul84LO-61" edge="1">
          <mxGeometry relative="1" as="geometry">
            <mxPoint x="366.1538461538462" y="611.5384615384614" as="targetPoint" />
          </mxGeometry>
        </mxCell>
        <mxCell id="7pt3q2MDJ_d6-O4SjyfG-14" value="&lt;div&gt;User is not Logged In&lt;/div&gt;" style="shape=parallelogram;perimeter=parallelogramPerimeter;whiteSpace=wrap;html=1;fixedSize=1;fillColor=#FF6666;strokeColor=#6F0000;strokeWidth=4;size=15;direction=west;flipH=1;fontColor=#ffffff;" parent="1" vertex="1">
          <mxGeometry x="480" y="140" width="160" height="60" as="geometry" />
        </mxCell>
        <mxCell id="7pt3q2MDJ_d6-O4SjyfG-27" value="" style="endArrow=none;html=1;rounded=0;fillColor=#dae8fc;strokeColor=#6c8ebf;" parent="1" edge="1">
          <mxGeometry width="50" height="50" relative="1" as="geometry">
            <mxPoint x="960" y="310" as="sourcePoint" />
            <mxPoint x="960" y="290" as="targetPoint" />
          </mxGeometry>
        </mxCell>
        <mxCell id="7pt3q2MDJ_d6-O4SjyfG-31" style="rounded=0;orthogonalLoop=1;jettySize=auto;html=1;fillColor=#f8cecc;strokeColor=#b85450;entryX=1;entryY=0.25;entryDx=0;entryDy=0;exitX=1;exitY=0.5;exitDx=0;exitDy=0;" parent="1" source="7pt3q2MDJ_d6-O4SjyfG-30" edge="1" target="7pt3q2MDJ_d6-O4SjyfG-2">
          <mxGeometry relative="1" as="geometry">
            <mxPoint x="1260" y="581" as="targetPoint" />
            <mxPoint x="1400" y="580" as="sourcePoint" />
          </mxGeometry>
        </mxCell>
        <mxCell id="7pt3q2MDJ_d6-O4SjyfG-30" value="&lt;div&gt;User is not Registered&lt;br&gt;&lt;/div&gt;" style="shape=parallelogram;perimeter=parallelogramPerimeter;whiteSpace=wrap;html=1;fixedSize=1;fillColor=#FF6666;strokeColor=#6F0000;strokeWidth=4;size=15;direction=west;flipH=1;fontColor=#ffffff;" parent="1" vertex="1">
          <mxGeometry x="1480" y="330" width="160" height="60" as="geometry" />
        </mxCell>
        <mxCell id="7pt3q2MDJ_d6-O4SjyfG-49" style="rounded=0;orthogonalLoop=1;jettySize=auto;html=1;exitX=0.25;exitY=0;exitDx=0;exitDy=0;endArrow=classic;endFill=1;entryX=1;entryY=0.5;entryDx=0;entryDy=0;" parent="1" source="7pt3q2MDJ_d6-O4SjyfG-32" target="QFNl94cKe365iZrxpkh_-40" edge="1">
          <mxGeometry relative="1" as="geometry">
            <mxPoint x="810" y="390" as="targetPoint" />
          </mxGeometry>
        </mxCell>
        <mxCell id="7pt3q2MDJ_d6-O4SjyfG-32" value="&lt;div&gt;User is Registered&lt;br&gt;&lt;/div&gt;" style="shape=parallelogram;perimeter=parallelogramPerimeter;whiteSpace=wrap;html=1;fixedSize=1;fillColor=#dae8fc;strokeColor=#000000;strokeWidth=4;" parent="1" vertex="1">
          <mxGeometry x="1165" y="370" width="160" height="60" as="geometry" />
        </mxCell>
        <mxCell id="7pt3q2MDJ_d6-O4SjyfG-35" style="rounded=0;orthogonalLoop=1;jettySize=auto;html=1;exitX=1;exitY=0.5;exitDx=0;exitDy=0;entryX=0.057;entryY=0.606;entryDx=0;entryDy=0;entryPerimeter=0;" parent="1" source="7pt3q2MDJ_d6-O4SjyfG-33" target="7pt3q2MDJ_d6-O4SjyfG-32" edge="1">
          <mxGeometry relative="1" as="geometry" />
        </mxCell>
        <mxCell id="7pt3q2MDJ_d6-O4SjyfG-33" value="" style="ellipse;whiteSpace=wrap;html=1;aspect=fixed;fillColor=#e51400;strokeColor=#B20000;fontColor=#ffffff;" parent="1" vertex="1">
          <mxGeometry x="1070" y="410" width="20" height="20" as="geometry" />
        </mxCell>
        <mxCell id="7pt3q2MDJ_d6-O4SjyfG-44" style="rounded=0;orthogonalLoop=1;jettySize=auto;html=1;exitX=0;exitY=0;exitDx=0;exitDy=0;entryX=0.5;entryY=0;entryDx=0;entryDy=0;fillColor=#dae8fc;strokeColor=#6c8ebf;" parent="1" source="7pt3q2MDJ_d6-O4SjyfG-43" target="7pt3q2MDJ_d6-O4SjyfG-30" edge="1">
          <mxGeometry relative="1" as="geometry" />
        </mxCell>
        <mxCell id="7pt3q2MDJ_d6-O4SjyfG-43" value="Register User" style="shape=parallelogram;html=1;strokeWidth=2;perimeter=parallelogramPerimeter;whiteSpace=wrap;rounded=0;arcSize=12;size=0.23;fillColor=#dae8fc;strokeColor=#000000;" parent="1" vertex="1">
          <mxGeometry x="1520" y="525" width="140" height="50" as="geometry" />
        </mxCell>
        <mxCell id="7pt3q2MDJ_d6-O4SjyfG-45" value="" style="endArrow=none;html=1;rounded=0;fillColor=#dae8fc;strokeColor=#6c8ebf;" parent="1" edge="1">
          <mxGeometry width="50" height="50" relative="1" as="geometry">
            <mxPoint x="1540" y="415" as="sourcePoint" />
            <mxPoint x="1570" y="415" as="targetPoint" />
          </mxGeometry>
        </mxCell>
        <mxCell id="7pt3q2MDJ_d6-O4SjyfG-48" style="rounded=0;orthogonalLoop=1;jettySize=auto;html=1;exitX=1;exitY=0.5;exitDx=0;exitDy=0;entryX=0;entryY=0.5;entryDx=0;entryDy=0;" parent="1" source="7pt3q2MDJ_d6-O4SjyfG-46" target="7pt3q2MDJ_d6-O4SjyfG-43" edge="1">
          <mxGeometry relative="1" as="geometry" />
        </mxCell>
        <mxCell id="7pt3q2MDJ_d6-O4SjyfG-46" value="" style="ellipse;whiteSpace=wrap;html=1;aspect=fixed;fillColor=#e51400;strokeColor=#B20000;fontColor=#ffffff;" parent="1" vertex="1">
          <mxGeometry x="1080" y="470" width="20" height="20" as="geometry" />
        </mxCell>
        <mxCell id="7pt3q2MDJ_d6-O4SjyfG-53" style="rounded=0;orthogonalLoop=1;jettySize=auto;html=1;entryX=0;entryY=0.75;entryDx=0;entryDy=0;" parent="1" source="7pt3q2MDJ_d6-O4SjyfG-56" target="7pt3q2MDJ_d6-O4SjyfG-43" edge="1">
          <mxGeometry relative="1" as="geometry">
            <mxPoint x="1390" y="740" as="targetPoint" />
            <mxPoint x="1390" y="820" as="sourcePoint" />
          </mxGeometry>
        </mxCell>
        <mxCell id="7pt3q2MDJ_d6-O4SjyfG-59" style="rounded=0;orthogonalLoop=1;jettySize=auto;html=1;exitX=1;exitY=0.5;exitDx=0;exitDy=0;entryX=0;entryY=1;entryDx=0;entryDy=0;endArrow=none;endFill=0;" parent="1" source="7pt3q2MDJ_d6-O4SjyfG-54" target="7pt3q2MDJ_d6-O4SjyfG-56" edge="1">
          <mxGeometry relative="1" as="geometry" />
        </mxCell>
        <mxCell id="7pt3q2MDJ_d6-O4SjyfG-54" value="inputs data" style="ellipse;whiteSpace=wrap;html=1;fillColor=#f8cecc;strokeColor=#b85450;" parent="1" vertex="1">
          <mxGeometry x="1140" y="560" width="120" height="30" as="geometry" />
        </mxCell>
        <mxCell id="7pt3q2MDJ_d6-O4SjyfG-55" value="" style="endArrow=classic;html=1;rounded=0;exitX=0.825;exitY=0.9;exitDx=0;exitDy=0;endFill=1;exitPerimeter=0;entryX=0;entryY=0.5;entryDx=0;entryDy=0;" parent="1" source="QFNl94cKe365iZrxpkh_-8" edge="1" target="7pt3q2MDJ_d6-O4SjyfG-54">
          <mxGeometry width="50" height="50" relative="1" as="geometry">
            <mxPoint x="1125" y="853" as="sourcePoint" />
            <mxPoint x="1100" y="905" as="targetPoint" />
          </mxGeometry>
        </mxCell>
        <mxCell id="7pt3q2MDJ_d6-O4SjyfG-56" value="" style="ellipse;whiteSpace=wrap;html=1;aspect=fixed;fillColor=#cce5ff;strokeColor=#36393d;" parent="1" vertex="1">
          <mxGeometry x="1330" y="560" width="20" height="20" as="geometry" />
        </mxCell>
        <mxCell id="N_5KMHFPPtvNETul84LO-39" value="Manage Machines" style="shape=parallelogram;perimeter=parallelogramPerimeter;whiteSpace=wrap;html=1;fixedSize=1;fillColor=#dae8fc;strokeColor=#6c8ebf;" parent="1" vertex="1">
          <mxGeometry x="130" y="190" width="140" height="60" as="geometry" />
        </mxCell>
        <mxCell id="N_5KMHFPPtvNETul84LO-43" style="rounded=0;orthogonalLoop=1;jettySize=auto;html=1;exitX=0;exitY=0.5;exitDx=0;exitDy=0;entryX=1;entryY=0.5;entryDx=0;entryDy=0;" parent="1" source="N_5KMHFPPtvNETul84LO-40" target="N_5KMHFPPtvNETul84LO-41" edge="1">
          <mxGeometry relative="1" as="geometry" />
        </mxCell>
        <mxCell id="N_5KMHFPPtvNETul84LO-40" value="" style="ellipse;whiteSpace=wrap;html=1;aspect=fixed;fillColor=#ffff88;strokeColor=#36393d;" parent="1" vertex="1">
          <mxGeometry x="640" y="650" width="20" height="20" as="geometry" />
        </mxCell>
        <mxCell id="N_5KMHFPPtvNETul84LO-88" style="rounded=0;orthogonalLoop=1;jettySize=auto;html=1;exitX=0.5;exitY=1;exitDx=0;exitDy=0;entryX=0;entryY=0.5;entryDx=0;entryDy=0;fillColor=#dae8fc;strokeColor=#6c8ebf;" parent="1" source="N_5KMHFPPtvNETul84LO-41" target="N_5KMHFPPtvNETul84LO-86" edge="1">
          <mxGeometry relative="1" as="geometry" />
        </mxCell>
        <mxCell id="N_5KMHFPPtvNETul84LO-41" value="Add Machine" style="shape=parallelogram;perimeter=parallelogramPerimeter;whiteSpace=wrap;html=1;fixedSize=1;fillColor=#dae8fc;strokeColor=#6c8ebf;" parent="1" vertex="1">
          <mxGeometry x="190" y="730" width="140" height="60" as="geometry" />
        </mxCell>
        <mxCell id="N_5KMHFPPtvNETul84LO-123" style="rounded=0;orthogonalLoop=1;jettySize=auto;html=1;exitX=0;exitY=0.5;exitDx=0;exitDy=0;entryX=0.5;entryY=0;entryDx=0;entryDy=0;" parent="1" source="N_5KMHFPPtvNETul84LO-45" target="N_5KMHFPPtvNETul84LO-114" edge="1">
          <mxGeometry relative="1" as="geometry" />
        </mxCell>
        <mxCell id="N_5KMHFPPtvNETul84LO-45" value="" style="ellipse;whiteSpace=wrap;html=1;aspect=fixed;fillColor=#ffff88;strokeColor=#36393d;" parent="1" vertex="1">
          <mxGeometry x="670" y="375" width="20" height="20" as="geometry" />
        </mxCell>
        <mxCell id="N_5KMHFPPtvNETul84LO-51" style="rounded=0;orthogonalLoop=1;jettySize=auto;html=1;exitX=0.5;exitY=0;exitDx=0;exitDy=0;" parent="1" source="N_5KMHFPPtvNETul84LO-49" target="N_5KMHFPPtvNETul84LO-39" edge="1">
          <mxGeometry relative="1" as="geometry" />
        </mxCell>
        <mxCell id="V31sx_IjUTGQrduutuzt-1" style="rounded=0;orthogonalLoop=1;jettySize=auto;html=1;exitX=0;exitY=1;exitDx=0;exitDy=0;entryX=0.609;entryY=0.01;entryDx=0;entryDy=0;entryPerimeter=0;" edge="1" parent="1" source="N_5KMHFPPtvNETul84LO-49" target="N_5KMHFPPtvNETul84LO-107">
          <mxGeometry relative="1" as="geometry" />
        </mxCell>
        <mxCell id="N_5KMHFPPtvNETul84LO-49" value="" style="ellipse;whiteSpace=wrap;html=1;aspect=fixed;fillColor=#ffff88;strokeColor=#36393d;" parent="1" vertex="1">
          <mxGeometry x="190" y="370" width="20" height="20" as="geometry" />
        </mxCell>
        <mxCell id="N_5KMHFPPtvNETul84LO-53" style="rounded=0;orthogonalLoop=1;jettySize=auto;html=1;exitX=0.5;exitY=0;exitDx=0;exitDy=0;entryX=0.75;entryY=1;entryDx=0;entryDy=0;" parent="1" source="N_5KMHFPPtvNETul84LO-52" target="N_5KMHFPPtvNETul84LO-41" edge="1">
          <mxGeometry relative="1" as="geometry" />
        </mxCell>
        <mxCell id="N_5KMHFPPtvNETul84LO-52" value="" style="ellipse;whiteSpace=wrap;html=1;aspect=fixed;fillColor=#ffff88;strokeColor=#36393d;" parent="1" vertex="1">
          <mxGeometry x="230" y="890" width="20" height="20" as="geometry" />
        </mxCell>
        <mxCell id="N_5KMHFPPtvNETul84LO-58" value="" style="endArrow=none;html=1;rounded=0;entryX=0.5;entryY=1;entryDx=0;entryDy=0;exitX=0.375;exitY=0;exitDx=0;exitDy=0;" parent="1" source="QFNl94cKe365iZrxpkh_-9" target="N_5KMHFPPtvNETul84LO-63" edge="1">
          <mxGeometry width="50" height="50" relative="1" as="geometry">
            <mxPoint x="340" y="920" as="sourcePoint" />
            <mxPoint x="270" y="887" as="targetPoint" />
          </mxGeometry>
        </mxCell>
        <mxCell id="N_5KMHFPPtvNETul84LO-61" value="Check Status" style="shape=parallelogram;perimeter=parallelogramPerimeter;whiteSpace=wrap;html=1;fixedSize=1;fillColor=#dae8fc;strokeColor=#6c8ebf;" parent="1" vertex="1">
          <mxGeometry x="-30" y="717" width="140" height="60" as="geometry" />
        </mxCell>
        <mxCell id="N_5KMHFPPtvNETul84LO-62" style="rounded=0;orthogonalLoop=1;jettySize=auto;html=1;exitX=0;exitY=0;exitDx=0;exitDy=0;entryX=1;entryY=0.75;entryDx=0;entryDy=0;" parent="1" source="N_5KMHFPPtvNETul84LO-63" target="N_5KMHFPPtvNETul84LO-61" edge="1">
          <mxGeometry relative="1" as="geometry" />
        </mxCell>
        <mxCell id="N_5KMHFPPtvNETul84LO-63" value="" style="ellipse;whiteSpace=wrap;html=1;aspect=fixed;fillColor=#ffff88;strokeColor=#36393d;" parent="1" vertex="1">
          <mxGeometry x="110" y="910" width="20" height="20" as="geometry" />
        </mxCell>
        <mxCell id="N_5KMHFPPtvNETul84LO-64" style="rounded=0;orthogonalLoop=1;jettySize=auto;html=1;entryX=1;entryY=0.5;entryDx=0;entryDy=0;endArrow=none;endFill=0;exitX=0;exitY=0.75;exitDx=0;exitDy=0;" parent="1" source="QFNl94cKe365iZrxpkh_-8" target="N_5KMHFPPtvNETul84LO-67" edge="1">
          <mxGeometry relative="1" as="geometry">
            <mxPoint x="800" y="730" as="sourcePoint" />
          </mxGeometry>
        </mxCell>
        <mxCell id="N_5KMHFPPtvNETul84LO-65" value="" style="endArrow=none;html=1;rounded=0;entryX=1;entryY=0.5;entryDx=0;entryDy=0;exitX=0;exitY=0.5;exitDx=0;exitDy=0;" parent="1" source="QFNl94cKe365iZrxpkh_-16" target="N_5KMHFPPtvNETul84LO-70" edge="1">
          <mxGeometry width="50" height="50" relative="1" as="geometry">
            <mxPoint x="760" y="941.5" as="sourcePoint" />
            <mxPoint x="690" y="908.5" as="targetPoint" />
          </mxGeometry>
        </mxCell>
        <mxCell id="N_5KMHFPPtvNETul84LO-66" style="rounded=0;orthogonalLoop=1;jettySize=auto;html=1;exitX=0;exitY=0.5;exitDx=0;exitDy=0;entryX=0.643;entryY=0.05;entryDx=0;entryDy=0;entryPerimeter=0;" parent="1" source="N_5KMHFPPtvNETul84LO-67" target="N_5KMHFPPtvNETul84LO-61" edge="1">
          <mxGeometry relative="1" as="geometry" />
        </mxCell>
        <mxCell id="N_5KMHFPPtvNETul84LO-67" value="" style="ellipse;whiteSpace=wrap;html=1;aspect=fixed;fillColor=#ffff88;strokeColor=#36393d;" parent="1" vertex="1">
          <mxGeometry x="690" y="460" width="20" height="20" as="geometry" />
        </mxCell>
        <mxCell id="N_5KMHFPPtvNETul84LO-77" style="rounded=0;orthogonalLoop=1;jettySize=auto;html=1;exitX=0.5;exitY=0;exitDx=0;exitDy=0;entryX=0.5;entryY=1;entryDx=0;entryDy=0;endArrow=none;endFill=0;" parent="1" source="N_5KMHFPPtvNETul84LO-68" target="N_5KMHFPPtvNETul84LO-49" edge="1">
          <mxGeometry relative="1" as="geometry" />
        </mxCell>
        <mxCell id="N_5KMHFPPtvNETul84LO-68" value="Remove Machine" style="shape=parallelogram;perimeter=parallelogramPerimeter;whiteSpace=wrap;html=1;fixedSize=1;fillColor=#dae8fc;strokeColor=#6c8ebf;" parent="1" vertex="1">
          <mxGeometry x="390" y="738.5" width="140" height="60" as="geometry" />
        </mxCell>
        <mxCell id="N_5KMHFPPtvNETul84LO-69" style="rounded=0;orthogonalLoop=1;jettySize=auto;html=1;exitX=0;exitY=0.5;exitDx=0;exitDy=0;entryX=1;entryY=0.75;entryDx=0;entryDy=0;" parent="1" source="N_5KMHFPPtvNETul84LO-70" target="N_5KMHFPPtvNETul84LO-68" edge="1">
          <mxGeometry relative="1" as="geometry" />
        </mxCell>
        <mxCell id="N_5KMHFPPtvNETul84LO-70" value="" style="ellipse;whiteSpace=wrap;html=1;aspect=fixed;fillColor=#ffff88;strokeColor=#36393d;" parent="1" vertex="1">
          <mxGeometry x="640" y="717" width="20" height="20" as="geometry" />
        </mxCell>
        <mxCell id="N_5KMHFPPtvNETul84LO-71" style="rounded=0;orthogonalLoop=1;jettySize=auto;html=1;exitX=0;exitY=0.5;exitDx=0;exitDy=0;entryX=1;entryY=1;entryDx=0;entryDy=0;" parent="1" source="N_5KMHFPPtvNETul84LO-74" target="N_5KMHFPPtvNETul84LO-41" edge="1">
          <mxGeometry relative="1" as="geometry">
            <mxPoint x="745" y="797" as="targetPoint" />
          </mxGeometry>
        </mxCell>
        <mxCell id="N_5KMHFPPtvNETul84LO-76" style="rounded=0;orthogonalLoop=1;jettySize=auto;html=1;exitX=0;exitY=0.5;exitDx=0;exitDy=0;entryX=1;entryY=0.5;entryDx=0;entryDy=0;endArrow=none;endFill=0;" parent="1" source="N_5KMHFPPtvNETul84LO-72" target="N_5KMHFPPtvNETul84LO-74" edge="1">
          <mxGeometry relative="1" as="geometry" />
        </mxCell>
        <mxCell id="N_5KMHFPPtvNETul84LO-72" value="inputs data" style="ellipse;whiteSpace=wrap;html=1;fillColor=#f8cecc;strokeColor=#b85450;" parent="1" vertex="1">
          <mxGeometry x="500" y="825" width="120" height="30" as="geometry" />
        </mxCell>
        <mxCell id="N_5KMHFPPtvNETul84LO-73" value="" style="endArrow=classic;html=1;rounded=0;entryX=1;entryY=0.5;entryDx=0;entryDy=0;endFill=1;exitX=0;exitY=0.5;exitDx=0;exitDy=0;" parent="1" source="QFNl94cKe365iZrxpkh_-16" target="N_5KMHFPPtvNETul84LO-72" edge="1">
          <mxGeometry width="50" height="50" relative="1" as="geometry">
            <mxPoint x="480" y="910" as="sourcePoint" />
            <mxPoint x="535" y="835" as="targetPoint" />
          </mxGeometry>
        </mxCell>
        <mxCell id="N_5KMHFPPtvNETul84LO-74" value="" style="ellipse;whiteSpace=wrap;html=1;aspect=fixed;fillColor=#cce5ff;strokeColor=#36393d;" parent="1" vertex="1">
          <mxGeometry x="425" y="825" width="20" height="20" as="geometry" />
        </mxCell>
        <mxCell id="N_5KMHFPPtvNETul84LO-78" style="rounded=0;orthogonalLoop=1;jettySize=auto;html=1;entryX=0.5;entryY=1;entryDx=0;entryDy=0;endArrow=none;endFill=0;" parent="1" source="N_5KMHFPPtvNETul84LO-41" target="N_5KMHFPPtvNETul84LO-49" edge="1">
          <mxGeometry relative="1" as="geometry">
            <mxPoint x="470" y="749" as="sourcePoint" />
            <mxPoint x="365" y="580" as="targetPoint" />
          </mxGeometry>
        </mxCell>
        <mxCell id="N_5KMHFPPtvNETul84LO-83" style="rounded=0;orthogonalLoop=1;jettySize=auto;html=1;exitX=0.75;exitY=1;exitDx=0;exitDy=0;" parent="1" source="NPP5GdCvXKv0nV-kcgQ7-17" target="N_5KMHFPPtvNETul84LO-61" edge="1">
          <mxGeometry relative="1" as="geometry" />
        </mxCell>
        <mxCell id="N_5KMHFPPtvNETul84LO-85" style="rounded=0;orthogonalLoop=1;jettySize=auto;html=1;exitX=0.75;exitY=1;exitDx=0;exitDy=0;" parent="1" source="NPP5GdCvXKv0nV-kcgQ7-17" target="N_5KMHFPPtvNETul84LO-68" edge="1">
          <mxGeometry relative="1" as="geometry" />
        </mxCell>
        <mxCell id="N_5KMHFPPtvNETul84LO-87" style="rounded=0;orthogonalLoop=1;jettySize=auto;html=1;exitX=0.25;exitY=1;exitDx=0;exitDy=0;entryX=0.5;entryY=1;entryDx=0;entryDy=0;fillColor=#f8cecc;strokeColor=#b85450;" parent="1" source="N_5KMHFPPtvNETul84LO-86" target="N_5KMHFPPtvNETul84LO-61" edge="1">
          <mxGeometry relative="1" as="geometry" />
        </mxCell>
        <mxCell id="N_5KMHFPPtvNETul84LO-86" value="No Machines" style="shape=parallelogram;perimeter=parallelogramPerimeter;whiteSpace=wrap;html=1;fixedSize=1;fillColor=#FF6666;strokeColor=#6F0000;strokeWidth=4;size=15;direction=west;flipH=1;fontColor=#ffffff;" parent="1" vertex="1">
          <mxGeometry x="-160" y="870" width="120" height="40" as="geometry" />
        </mxCell>
        <mxCell id="N_5KMHFPPtvNETul84LO-89" value="" style="endArrow=none;html=1;rounded=0;fillColor=#dae8fc;strokeColor=#6c8ebf;" parent="1" edge="1">
          <mxGeometry width="50" height="50" relative="1" as="geometry">
            <mxPoint x="-30" y="890" as="sourcePoint" />
            <mxPoint x="-30" y="870" as="targetPoint" />
          </mxGeometry>
        </mxCell>
        <mxCell id="N_5KMHFPPtvNETul84LO-90" value="" style="endArrow=none;html=1;rounded=0;fillColor=#f8cecc;strokeColor=#b85450;" parent="1" edge="1">
          <mxGeometry width="50" height="50" relative="1" as="geometry">
            <mxPoint x="50" y="790" as="sourcePoint" />
            <mxPoint x="30" y="790" as="targetPoint" />
          </mxGeometry>
        </mxCell>
        <mxCell id="N_5KMHFPPtvNETul84LO-91" value="" style="endArrow=none;html=1;rounded=0;fillColor=#f8cecc;strokeColor=#b85450;" parent="1" edge="1">
          <mxGeometry width="50" height="50" relative="1" as="geometry">
            <mxPoint x="80" y="710" as="sourcePoint" />
            <mxPoint x="70" y="700" as="targetPoint" />
          </mxGeometry>
        </mxCell>
        <mxCell id="N_5KMHFPPtvNETul84LO-92" value="" style="endArrow=none;html=1;rounded=0;fillColor=#f8cecc;strokeColor=#b85450;" parent="1" edge="1">
          <mxGeometry width="50" height="50" relative="1" as="geometry">
            <mxPoint x="320" y="720" as="sourcePoint" />
            <mxPoint x="290" y="720" as="targetPoint" />
          </mxGeometry>
        </mxCell>
        <mxCell id="N_5KMHFPPtvNETul84LO-93" value="" style="endArrow=none;html=1;rounded=0;fillColor=#f8cecc;strokeColor=#b85450;" parent="1" edge="1">
          <mxGeometry width="50" height="50" relative="1" as="geometry">
            <mxPoint x="480" y="727" as="sourcePoint" />
            <mxPoint x="460" y="717" as="targetPoint" />
          </mxGeometry>
        </mxCell>
        <mxCell id="N_5KMHFPPtvNETul84LO-96" value="" style="ellipse;whiteSpace=wrap;html=1;aspect=fixed;fillColor=#ffff88;strokeColor=#36393d;" parent="1" vertex="1">
          <mxGeometry x="300" y="921" width="20" height="20" as="geometry" />
        </mxCell>
        <mxCell id="N_5KMHFPPtvNETul84LO-97" value="" style="endArrow=none;html=1;rounded=0;entryX=0;entryY=1;entryDx=0;entryDy=0;exitX=1;exitY=0.25;exitDx=0;exitDy=0;" parent="1" source="QFNl94cKe365iZrxpkh_-9" target="N_5KMHFPPtvNETul84LO-96" edge="1">
          <mxGeometry width="50" height="50" relative="1" as="geometry">
            <mxPoint x="335" y="960" as="sourcePoint" />
            <mxPoint x="350" y="890" as="targetPoint" />
          </mxGeometry>
        </mxCell>
        <mxCell id="N_5KMHFPPtvNETul84LO-98" style="rounded=0;orthogonalLoop=1;jettySize=auto;html=1;exitX=0.733;exitY=0.033;exitDx=0;exitDy=0;entryX=0.25;entryY=1;entryDx=0;entryDy=0;exitPerimeter=0;" parent="1" source="N_5KMHFPPtvNETul84LO-96" target="N_5KMHFPPtvNETul84LO-68" edge="1">
          <mxGeometry relative="1" as="geometry">
            <mxPoint x="333" y="883" as="sourcePoint" />
            <mxPoint x="326" y="782" as="targetPoint" />
          </mxGeometry>
        </mxCell>
        <mxCell id="N_5KMHFPPtvNETul84LO-106" value="" style="endArrow=none;html=1;rounded=0;entryX=1;entryY=1;entryDx=0;entryDy=0;exitX=0;exitY=0.25;exitDx=0;exitDy=0;" parent="1" source="QFNl94cKe365iZrxpkh_-9" target="N_5KMHFPPtvNETul84LO-109" edge="1">
          <mxGeometry width="50" height="50" relative="1" as="geometry">
            <mxPoint x="108" y="985" as="sourcePoint" />
            <mxPoint x="90" y="887" as="targetPoint" />
          </mxGeometry>
        </mxCell>
        <mxCell id="N_5KMHFPPtvNETul84LO-107" value="Schedule Machine" style="shape=parallelogram;perimeter=parallelogramPerimeter;whiteSpace=wrap;html=1;fixedSize=1;fillColor=#dae8fc;strokeColor=#6c8ebf;" parent="1" vertex="1">
          <mxGeometry x="-210" y="717" width="140" height="60" as="geometry" />
        </mxCell>
        <mxCell id="N_5KMHFPPtvNETul84LO-108" style="rounded=0;orthogonalLoop=1;jettySize=auto;html=1;exitX=0;exitY=0;exitDx=0;exitDy=0;entryX=1;entryY=0.75;entryDx=0;entryDy=0;" parent="1" source="N_5KMHFPPtvNETul84LO-109" target="N_5KMHFPPtvNETul84LO-107" edge="1">
          <mxGeometry relative="1" as="geometry" />
        </mxCell>
        <mxCell id="N_5KMHFPPtvNETul84LO-109" value="" style="ellipse;whiteSpace=wrap;html=1;aspect=fixed;fillColor=#ffff88;strokeColor=#36393d;" parent="1" vertex="1">
          <mxGeometry x="-40" y="825" width="20" height="20" as="geometry" />
        </mxCell>
        <mxCell id="N_5KMHFPPtvNETul84LO-110" value="" style="endArrow=none;html=1;rounded=0;entryX=1;entryY=0.5;entryDx=0;entryDy=0;exitX=0;exitY=0.75;exitDx=0;exitDy=0;" parent="1" source="QFNl94cKe365iZrxpkh_-8" target="N_5KMHFPPtvNETul84LO-112" edge="1">
          <mxGeometry width="50" height="50" relative="1" as="geometry">
            <mxPoint x="298" y="975" as="sourcePoint" />
            <mxPoint x="100" y="897" as="targetPoint" />
          </mxGeometry>
        </mxCell>
        <mxCell id="N_5KMHFPPtvNETul84LO-111" style="rounded=0;orthogonalLoop=1;jettySize=auto;html=1;exitX=0;exitY=0.5;exitDx=0;exitDy=0;" parent="1" source="N_5KMHFPPtvNETul84LO-112" target="N_5KMHFPPtvNETul84LO-107" edge="1">
          <mxGeometry relative="1" as="geometry">
            <mxPoint x="-74" y="769" as="targetPoint" />
          </mxGeometry>
        </mxCell>
        <mxCell id="N_5KMHFPPtvNETul84LO-112" value="" style="ellipse;whiteSpace=wrap;html=1;aspect=fixed;fillColor=#ffff88;strokeColor=#36393d;" parent="1" vertex="1">
          <mxGeometry x="690" y="410" width="20" height="20" as="geometry" />
        </mxCell>
        <mxCell id="N_5KMHFPPtvNETul84LO-114" value="List Machines" style="shape=parallelogram;perimeter=parallelogramPerimeter;whiteSpace=wrap;html=1;fixedSize=1;fillColor=#dae8fc;strokeColor=#6c8ebf;" parent="1" vertex="1">
          <mxGeometry x="-400" y="717" width="140" height="60" as="geometry" />
        </mxCell>
        <mxCell id="N_5KMHFPPtvNETul84LO-115" value="" style="endArrow=none;html=1;rounded=0;entryX=1;entryY=0.5;entryDx=0;entryDy=0;exitX=0;exitY=0.5;exitDx=0;exitDy=0;" parent="1" source="QFNl94cKe365iZrxpkh_-9" target="N_5KMHFPPtvNETul84LO-117" edge="1">
          <mxGeometry width="50" height="50" relative="1" as="geometry">
            <mxPoint x="142" y="1061" as="sourcePoint" />
            <mxPoint x="-56" y="983" as="targetPoint" />
          </mxGeometry>
        </mxCell>
        <mxCell id="N_5KMHFPPtvNETul84LO-116" style="rounded=0;orthogonalLoop=1;jettySize=auto;html=1;exitX=0;exitY=0;exitDx=0;exitDy=0;entryX=0.75;entryY=1;entryDx=0;entryDy=0;" parent="1" source="N_5KMHFPPtvNETul84LO-117" target="N_5KMHFPPtvNETul84LO-114" edge="1">
          <mxGeometry relative="1" as="geometry">
            <mxPoint x="-230" y="855" as="targetPoint" />
          </mxGeometry>
        </mxCell>
        <mxCell id="N_5KMHFPPtvNETul84LO-117" value="" style="ellipse;whiteSpace=wrap;html=1;aspect=fixed;fillColor=#ffff88;strokeColor=#36393d;" parent="1" vertex="1">
          <mxGeometry x="-186" y="921" width="20" height="20" as="geometry" />
        </mxCell>
        <mxCell id="N_5KMHFPPtvNETul84LO-118" style="rounded=0;orthogonalLoop=1;jettySize=auto;html=1;exitX=1;exitY=1;exitDx=0;exitDy=0;entryX=1;entryY=0.75;entryDx=0;entryDy=0;fillColor=#f8cecc;strokeColor=#b85450;" parent="1" source="N_5KMHFPPtvNETul84LO-86" target="N_5KMHFPPtvNETul84LO-114" edge="1">
          <mxGeometry relative="1" as="geometry">
            <mxPoint x="40" y="870" as="sourcePoint" />
            <mxPoint x="50" y="787" as="targetPoint" />
          </mxGeometry>
        </mxCell>
        <mxCell id="N_5KMHFPPtvNETul84LO-121" style="rounded=0;orthogonalLoop=1;jettySize=auto;html=1;exitX=1;exitY=1;exitDx=0;exitDy=0;entryX=0.5;entryY=1;entryDx=0;entryDy=0;fillColor=#f8cecc;strokeColor=#b85450;" parent="1" target="N_5KMHFPPtvNETul84LO-107" edge="1" source="N_5KMHFPPtvNETul84LO-86">
          <mxGeometry relative="1" as="geometry">
            <mxPoint x="-80" y="870" as="sourcePoint" />
            <mxPoint x="-264" y="769" as="targetPoint" />
          </mxGeometry>
        </mxCell>
        <mxCell id="V31sx_IjUTGQrduutuzt-2" style="rounded=0;orthogonalLoop=1;jettySize=auto;html=1;exitX=0.75;exitY=1;exitDx=0;exitDy=0;entryX=0.5;entryY=0;entryDx=0;entryDy=0;" edge="1" parent="1" source="NPP5GdCvXKv0nV-kcgQ7-17" target="N_5KMHFPPtvNETul84LO-114">
          <mxGeometry relative="1" as="geometry" />
        </mxCell>
        <mxCell id="V31sx_IjUTGQrduutuzt-3" style="rounded=0;orthogonalLoop=1;jettySize=auto;html=1;exitX=0.5;exitY=0;exitDx=0;exitDy=0;strokeColor=#FF6666;entryX=0.599;entryY=0.033;entryDx=0;entryDy=0;entryPerimeter=0;" edge="1" parent="1" source="7pt3q2MDJ_d6-O4SjyfG-14" target="N_5KMHFPPtvNETul84LO-107">
          <mxGeometry relative="1" as="geometry">
            <mxPoint x="73" y="727" as="targetPoint" />
            <mxPoint x="498" y="180" as="sourcePoint" />
          </mxGeometry>
        </mxCell>
        <mxCell id="V31sx_IjUTGQrduutuzt-6" value="" style="rounded=0;orthogonalLoop=1;jettySize=auto;html=1;exitX=1;exitY=0.5;exitDx=0;exitDy=0;endArrow=none;endFill=0;" edge="1" parent="1" source="7pt3q2MDJ_d6-O4SjyfG-10" target="7pt3q2MDJ_d6-O4SjyfG-52">
          <mxGeometry relative="1" as="geometry">
            <mxPoint x="1050" y="305" as="sourcePoint" />
            <mxPoint x="1269" y="130" as="targetPoint" />
          </mxGeometry>
        </mxCell>
        <mxCell id="7pt3q2MDJ_d6-O4SjyfG-52" value="" style="ellipse;whiteSpace=wrap;html=1;aspect=fixed;fillColor=#cce5ff;strokeColor=#36393d;" parent="1" vertex="1">
          <mxGeometry x="1130" y="220" width="20" height="20" as="geometry" />
        </mxCell>
        <mxCell id="V31sx_IjUTGQrduutuzt-8" style="rounded=0;orthogonalLoop=1;jettySize=auto;html=1;exitX=0.25;exitY=1;exitDx=0;exitDy=0;entryX=0.5;entryY=0;entryDx=0;entryDy=0;endArrow=none;endFill=0;" edge="1" parent="1" source="QFNl94cKe365iZrxpkh_-40" target="N_5KMHFPPtvNETul84LO-112">
          <mxGeometry relative="1" as="geometry">
            <mxPoint x="900" y="220" as="sourcePoint" />
            <mxPoint x="690" y="385" as="targetPoint" />
          </mxGeometry>
        </mxCell>
        <mxCell id="V31sx_IjUTGQrduutuzt-9" style="rounded=0;orthogonalLoop=1;jettySize=auto;html=1;exitX=0.25;exitY=1;exitDx=0;exitDy=0;entryX=1;entryY=0;entryDx=0;entryDy=0;endArrow=none;endFill=0;" edge="1" parent="1" source="QFNl94cKe365iZrxpkh_-40" target="N_5KMHFPPtvNETul84LO-67">
          <mxGeometry relative="1" as="geometry">
            <mxPoint x="940" y="220" as="sourcePoint" />
            <mxPoint x="710" y="420" as="targetPoint" />
          </mxGeometry>
        </mxCell>
      </root>
    </mxGraphModel>
  </diagram>
</mxfile>
